ffmpeg started on 2016-12-08 at 06:42:06
Report written to "Output/x264/results/ffmpeg/sintelslower12000k.log"
Command line:
Tools/ffmpeg/ffmpeg -benchmark -y -i Input/y4m/sintel.y4m -c:v libx264 -preset slower -b:v 12000k -an Output/x264/encoded/sintelslower12000k.mkv
ffmpeg version N-82227-gdb23fde Copyright (c) 2000-2016 the FFmpeg developers
  built with gcc 5.4.0 (Ubuntu 5.4.0-6ubuntu1~16.04.2) 20160609
  configuration: --prefix=/home/jaroslav/ffmpeg_build --pkg-config-flags=--static --extra-cflags=-I/home/jaroslav/ffmpeg_build/include --extra-ldflags=-L/home/jaroslav/ffmpeg_build/lib --bindir=/home/jaroslav/bin --enable-gpl --enable-libass --enable-libfdk-aac --enable-libfreetype --enable-libmp3lame --enable-libopus --enable-libtheora --enable-libvorbis --enable-libvpx --enable-libx264 --enable-libx265 --enable-nvenc --enable-libmfx --enable-libxvid --enable-libgsm --enable-libopencore-amrnb --enable-version3 --enable-nonfree
  libavutil      55. 35.100 / 55. 35.100
  libavcodec     57. 66.101 / 57. 66.101
  libavformat    57. 57.100 / 57. 57.100
  libavdevice    57.  2.100 / 57.  2.100
  libavfilter     6. 66.100 /  6. 66.100
  libswscale      4.  3.100 /  4.  3.100
  libswresample   2.  4.100 /  2.  4.100
  libpostproc    54.  2.100 / 54.  2.100
Input #0, yuv4mpegpipe, from 'Input/y4m/sintel.y4m':
  Duration: 00:00:20.83, start: 0.000000, bitrate: 2057307 kb/s
    Stream #0:0: Video: rawvideo (I420 / 0x30323449), yuv420p(progressive), 4096x1744, SAR 1:1 DAR 256:109, 24 fps, 24 tbr, 24 tbn, 24 tbc
[libx264 @ 0x339c1c0] using SAR=1/1
[libx264 @ 0x339c1c0] DPB size (8 frames, 223232 mbs) > level limit (6 frames, 184320 mbs)
[libx264 @ 0x339c1c0] using cpu capabilities: MMX2 SSE2Fast SSSE3 SSE4.2 AVX FMA3 AVX2 LZCNT BMI2
[libx264 @ 0x339c1c0] profile High, level 5.2
[libx264 @ 0x339c1c0] 264 - core 148 - H.264/MPEG-4 AVC codec - Copyleft 2003-2016 - http://www.videolan.org/x264.html - options: cabac=1 ref=8 deblock=1:0:0 analyse=0x3:0x133 me=umh subme=9 psy=1 psy_rd=1.00:0.00 mixed_ref=1 me_range=16 chroma_me=1 trellis=2 8x8dct=1 cqm=0 deadzone=21,11 fast_pskip=1 chroma_qp_offset=-2 threads=6 lookahead_threads=1 sliced_threads=0 nr=0 decimate=1 interlaced=0 bluray_compat=0 constrained_intra=0 bframes=3 b_pyramid=2 b_adapt=2 b_bias=0 direct=3 weightb=1 open_gop=0 weightp=2 keyint=250 keyint_min=24 scenecut=40 intra_refresh=0 rc_lookahead=60 rc=abr mbtree=1 bitrate=12000 ratetol=1.0 qcomp=0.60 qpmin=0 qpmax=69 qpstep=4 ip_ratio=1.40 aq=1:1.00
Output #0, matroska, to 'Output/x264/encoded/sintelslower12000k.mkv':
  Metadata:
    encoder         : Lavf57.57.100
    Stream #0:0: Video: h264 (libx264) (H264 / 0x34363248), yuv420p, 4096x1744 [SAR 1:1 DAR 256:109], q=-1--1, 12000 kb/s, 24 fps, 1k tbn, 24 tbc
    Metadata:
      encoder         : Lavc57.66.101 libx264
    Side data:
      cpb: bitrate max/min/avg: 0/0/12000000 buffer size: 0 vbv_delay: -1
Stream mapping:
  Stream #0:0 -> #0:0 (rawvideo (native) -> h264 (libx264))
Press [q] to stop, [?] for help
frame=   10 fps=0.0 q=0.0 size=       0kB time=00:00:00.00 bitrate=N/A speed=   0x    frame=   12 fps= 12 q=0.0 size=       0kB time=00:00:00.00 bitrate=N/A speed=   0x    frame=   21 fps= 13 q=0.0 size=       0kB time=00:00:00.00 bitrate=N/A speed=   0x    frame=   30 fps= 15 q=0.0 size=       0kB time=00:00:00.00 bitrate=N/A speed=   0x    frame=   39 fps= 15 q=0.0 size=       0kB time=00:00:00.00 bitrate=N/A speed=   0x    frame=   48 fps= 15 q=0.0 size=       0kB time=00:00:00.00 bitrate=N/A speed=   0x    frame=   58 fps= 16 q=0.0 size=       0kB time=00:00:00.00 bitrate=N/A speed=   0x    frame=   67 fps=6.3 q=0.0 size=       0kB time=00:00:00.00 bitrate=N/A speed=   0x    frame=   68 fps=6.1 q=0.0 size=       0kB time=00:00:00.00 bitrate=N/A speed=   0x    frame=   72 fps=6.1 q=23.0 size=       1kB time=-00:00:00.04 bitrate=N/A speed=N/A    frame=   73 fps=5.6 q=32.0 size=       1kB time=00:00:00.00 bitrate=5888.0kbits/s speed=7.61e-05x    frame=   74 fps=5.2 q=27.0 size=       1kB time=00:00:00.04 bitrate= 136.9kbits/s speed=0.003x    frame=   77 fps=4.9 q=36.0 size=       1kB time=00:00:00.16 bitrate=  35.0kbits/s speed=0.0106x    frame=   78 fps=4.7 q=41.0 size=       1kB time=00:00:00.20 bitrate=  28.2kbits/s speed=0.0127x    frame=   80 fps=4.5 q=41.0 size=       1kB time=00:00:00.29 bitrate=  20.1kbits/s speed=0.0164x    frame=   83 fps=4.4 q=41.0 size=       1kB time=00:00:00.41 bitrate=  14.1kbits/s speed=0.0224x    frame=   85 fps=4.4 q=41.0 size=       1kB time=00:00:00.50 bitrate=  11.8kbits/s speed=0.0259x    frame=   86 fps=4.2 q=41.0 size=       1kB time=00:00:00.54 bitrate=  10.8kbits/s speed=0.0263x    frame=   88 fps=4.1 q=40.0 size=       1kB time=00:00:00.62 bitrate=   9.4kbits/s speed=0.0294x    frame=   90 fps=4.1 q=40.0 size=       1kB time=00:00:00.70 bitrate=   8.3kbits/s speed=0.0325x    frame=   92 fps=4.0 q=40.0 size=       1kB time=00:00:00.79 bitrate=   7.4kbits/s speed=0.0344x    frame=   94 fps=3.9 q=40.0 size=       1kB time=00:00:00.87 bitrate=   6.7kbits/s speed=0.0365x    frame=   95 fps=3.8 q=40.0 size=       1kB time=00:00:00.91 bitrate=   6.4kbits/s speed=0.0372x    frame=   98 fps=3.8 q=39.0 size=       1kB time=00:00:01.04 bitrate=   5.6kbits/s speed=0.0409x    frame=   99 fps=3.7 q=39.0 size=       1kB time=00:00:01.08 bitrate=   5.4kbits/s speed=0.0409x    frame=  101 fps=3.7 q=39.0 size=       1kB time=00:00:01.16 bitrate=   5.0kbits/s speed=0.0431x    frame=  102 fps=3.6 q=39.0 size=       1kB time=00:00:01.20 bitrate=   4.9kbits/s speed=0.043x    frame=  104 fps=3.6 q=39.0 size=       1kB time=00:00:01.29 bitrate=   4.6kbits/s speed=0.0447x    frame=  106 fps=3.6 q=39.0 size=       1kB time=00:00:01.37 bitrate=   4.3kbits/s speed=0.0465x    frame=  107 fps=3.6 q=38.0 size=       1kB time=00:00:01.41 bitrate=   4.2kbits/s speed=0.0471x    frame=  108 fps=3.5 q=38.0 size=       1kB time=00:00:01.45 bitrate=   4.0kbits/s speed=0.0475x    frame=  110 fps=3.5 q=38.0 size=       1kB time=00:00:01.54 bitrate=   3.8kbits/s speed=0.0487x    frame=  112 fps=3.4 q=38.0 size=       1kB time=00:00:01.62 bitrate=   3.6kbits/s speed=0.05x    frame=  114 fps=3.4 q=38.0 size=       1kB time=00:00:01.70 bitrate=   3.4kbits/s speed=0.0517x    frame=  116 fps=3.4 q=38.0 size=       1kB time=00:00:01.79 bitrate=   3.3kbits/s speed=0.0527x    frame=  118 fps=3.4 q=37.0 size=       1kB time=00:00:01.87 bitrate=   3.1kbits/s speed=0.0542x    frame=  120 fps=3.4 q=37.0 size=       1kB time=00:00:01.95 bitrate=   3.0kbits/s speed=0.0556x    frame=  121 fps=3.4 q=37.0 size=       1kB time=00:00:02.00 bitrate=   2.9kbits/s speed=0.0559x    frame=  122 fps=3.3 q=37.0 size=       1kB time=00:00:02.04 bitrate=   2.9kbits/s speed=0.0559x    frame=  124 fps=3.3 q=37.0 size=       1kB time=00:00:02.12 bitrate=   2.8kbits/s speed=0.0564x    frame=  125 fps=3.3 q=37.0 size=       1kB time=00:00:02.16 bitrate=   2.7kbits/s speed=0.0564x    frame=  127 fps=3.2 q=37.0 size=       1kB time=00:00:02.25 bitrate=   2.6kbits/s speed=0.0566x    frame=  129 fps=3.2 q=37.0 size=       1kB time=00:00:02.33 bitrate=   2.5kbits/s speed=0.0576x    frame=  130 fps=3.2 q=37.0 size=       1kB time=00:00:02.37 bitrate=   2.5kbits/s speed=0.0576x    frame=  132 fps=3.1 q=37.0 size=       1kB time=00:00:02.45 bitrate=   2.4kbits/s speed=0.0582x    frame=  133 fps=3.1 q=37.0 size=       1kB time=00:00:02.50 bitrate=   2.4kbits/s speed=0.0585x    frame=  135 fps=3.1 q=37.0 size=       1kB time=00:00:02.58 bitrate=   2.3kbits/s speed=0.0591x    frame=  137 fps=3.0 q=37.0 size=       1kB time=00:00:02.66 bitrate=   2.2kbits/s speed=0.0588x    frame=  139 fps=3.0 q=36.0 size=       1kB time=00:00:02.75 bitrate=   2.1kbits/s speed=0.0596x    frame=  141 fps=3.0 q=36.0 size=    5157kB time=00:00:02.83 bitrate=14907.5kbits/s speed=0.0605x    frame=  143 fps=2.9 q=36.0 size=    5157kB time=00:00:02.91 bitrate=14478.3kbits/s speed=0.0602x    frame=  145 fps=2.9 q=36.0 size=    5157kB time=00:00:03.00 bitrate=14077.9kbits/s speed=0.0608x    frame=  146 fps=2.9 q=36.0 size=    5157kB time=00:00:03.04 bitrate=13883.6kbits/s speed=0.0609x    frame=  148 fps=2.9 q=36.0 size=    5157kB time=00:00:03.12 bitrate=13515.0kbits/s speed=0.0618x    frame=  149 fps=2.9 q=36.0 size=    5157kB time=00:00:03.16 bitrate=13335.8kbits/s speed=0.0611x    frame=  151 fps=2.9 q=36.0 size=    5157kB time=00:00:03.25 bitrate=12995.3kbits/s speed=0.0616x    frame=  153 fps=2.9 q=36.0 size=    5157kB time=00:00:03.33 bitrate=12671.8kbits/s speed=0.0624x    frame=  155 fps=2.8 q=36.0 size=    5157kB time=00:00:03.41 bitrate=12360.4kbits/s speed=0.0623x    frame=  156 fps=2.8 q=36.0 size=    5157kB time=00:00:03.45 bitrate=12213.9kbits/s speed=0.0623x    frame=  158 fps=2.8 q=35.0 size=    5157kB time=00:00:03.54 bitrate=11924.3kbits/s speed=0.063x    frame=  160 fps=2.8 q=35.0 size=    5157kB time=00:00:03.62 bitrate=11651.4kbits/s speed=0.0634x    frame=  161 fps=2.8 q=35.0 size=    5157kB time=00:00:03.66 bitrate=11517.9kbits/s speed=0.0633x    frame=  162 fps=2.8 q=35.0 size=    5157kB time=00:00:03.70 bitrate=11390.6kbits/s speed=0.0635x    frame=  164 fps=2.8 q=35.0 size=    5157kB time=00:00:03.79 bitrate=11138.4kbits/s speed=0.064x    frame=  166 fps=2.8 q=35.0 size=    5157kB time=00:00:03.87 bitrate=10899.8kbits/s speed=0.0645x    frame=  167 fps=2.7 q=35.0 size=    5157kB time=00:00:03.91 bitrate=10783.0kbits/s speed=0.0645x    frame=  169 fps=2.7 q=35.0 size=    5157kB time=00:00:04.00 bitrate=10559.3kbits/s speed=0.0649x    frame=  171 fps=2.7 q=35.0 size=    5157kB time=00:00:04.08 bitrate=10344.7kbits/s speed=0.0656x    frame=  172 fps=2.7 q=35.0 size=    5157kB time=00:00:04.12 bitrate=10239.4kbits/s speed=0.0657x    frame=  173 fps=2.7 q=35.0 size=    5157kB time=00:00:04.16 bitrate=10136.2kbits/s speed=0.0654x    frame=  175 fps=2.7 q=35.0 size=    5157kB time=00:00:04.25 bitrate=9938.3kbits/s speed=0.0656x    frame=  178 fps=2.7 q=35.0 size=    5157kB time=00:00:04.37 bitrate=9654.4kbits/s speed=0.0668x    frame=  181 fps=2.7 q=32.0 size=    5157kB time=00:00:04.50 bitrate=9386.3kbits/s speed=0.0674x    frame=  183 fps=2.7 q=34.0 size=    5157kB time=00:00:04.58 bitrate=9216.4kbits/s speed=0.0677x    frame=  184 fps=2.7 q=34.0 size=    5157kB time=00:00:04.62 bitrate=9132.7kbits/s speed=0.0678x    frame=  190 fps=2.7 q=34.0 size=    7102kB time=00:00:04.87 bitrate=11932.6kbits/s speed=0.0704x    frame=  191 fps=2.7 q=34.0 size=    7102kB time=00:00:04.91 bitrate=11830.7kbits/s speed=0.0703x    frame=  193 fps=2.7 q=34.0 size=    7102kB time=00:00:05.00 bitrate=11634.3kbits/s speed=0.0708x    frame=  196 fps=2.7 q=34.0 size=    7102kB time=00:00:05.12 bitrate=11350.6kbits/s speed=0.0714x    frame=  197 fps=2.7 q=34.0 size=    7102kB time=00:00:05.16 bitrate=11258.4kbits/s speed=0.0712x    frame=  198 fps=2.7 q=34.0 size=    7102kB time=00:00:05.20 bitrate=11169.7kbits/s speed=0.0712x    frame=  200 fps=2.7 q=34.0 size=    7102kB time=00:00:05.29 bitrate=10992.5kbits/s speed=0.0714x    frame=  202 fps=2.7 q=34.0 size=    7102kB time=00:00:05.37 bitrate=10822.8kbits/s speed=0.072x    frame=  204 fps=2.7 q=34.0 size=    7102kB time=00:00:05.45 bitrate=10658.2kbits/s speed=0.0719x    frame=  205 fps=2.7 q=34.0 size=    7102kB time=00:00:05.50 bitrate=10576.8kbits/s speed=0.072x    frame=  207 fps=2.7 q=34.0 size=    7102kB time=00:00:05.58 bitrate=10419.6kbits/s speed=0.0723x    frame=  209 fps=2.7 q=34.0 size=    7102kB time=00:00:05.66 bitrate=10265.2kbits/s speed=0.0728x    frame=  211 fps=2.7 q=34.0 size=    7102kB time=00:00:05.75 bitrate=10117.1kbits/s speed=0.073x    frame=  213 fps=2.7 q=34.0 size=    7102kB time=00:00:05.83 bitrate=9973.1kbits/s speed=0.0732x    frame=  215 fps=2.7 q=34.0 size=    7102kB time=00:00:05.91 bitrate=9831.6kbits/s speed=0.0735x    frame=  217 fps=2.7 q=34.0 size=    7102kB time=00:00:06.00 bitrate=9695.6kbits/s speed=0.0739x    frame=  219 fps=2.7 q=34.0 size=    7102kB time=00:00:06.08 bitrate=9563.3kbits/s speed=0.0743x    frame=  220 fps=2.7 q=34.0 size=    7102kB time=00:00:06.12 bitrate=9497.7kbits/s speed=0.0743x    frame=  222 fps=2.7 q=34.0 size=    7102kB time=00:00:06.20 bitrate=9370.8kbits/s speed=0.0742x    frame=  225 fps=2.7 q=34.0 size=    7102kB time=00:00:06.33 bitrate=9185.9kbits/s speed=0.0751x    frame=  228 fps=2.6 q=33.0 size=    7102kB time=00:00:06.45 bitrate=9008.1kbits/s speed=0.0747x    frame=  231 fps=2.6 q=33.0 size=    7102kB time=00:00:06.58 bitrate=8837.1kbits/s speed=0.0755x    frame=  233 fps=2.6 q=33.0 size=    7102kB time=00:00:06.66 bitrate=8725.7kbits/s speed=0.0758x    frame=  234 fps=2.6 q=33.0 size=    7102kB time=00:00:06.70 bitrate=8672.4kbits/s speed=0.0755x    frame=  235 fps=2.6 q=33.0 size=    7102kB time=00:00:06.75 bitrate=8618.5kbits/s speed=0.0755x    frame=  237 fps=2.6 q=33.0 size=    7102kB time=00:00:06.83 bitrate=8513.8kbits/s speed=0.0758x    frame=  239 fps=2.6 q=33.0 size=    7102kB time=00:00:06.91 bitrate=8410.4kbits/s speed=0.0762x    frame=  240 fps=2.6 q=33.0 size=    7102kB time=00:00:06.95 bitrate=8360.9kbits/s speed=0.0762x    frame=  241 fps=2.6 q=33.0 size=    7102kB time=00:00:07.00 bitrate=8310.7kbits/s speed=0.0761x    frame=  242 fps=2.6 q=33.0 size=    7102kB time=00:00:07.04 bitrate=8261.1kbits/s speed=0.0761x    frame=  244 fps=2.6 q=33.0 size=    7102kB time=00:00:07.12 bitrate=8164.9kbits/s speed=0.0765x    frame=  246 fps=2.6 q=33.0 size=    7102kB time=00:00:07.20 bitrate=8070.9kbits/s speed=0.0767x    frame=  248 fps=2.6 q=33.0 size=    7102kB time=00:00:07.29 bitrate=7978.0kbits/s speed=0.0766x    frame=  250 fps=2.6 q=33.0 size=    7102kB time=00:00:07.37 bitrate=7888.2kbits/s speed=0.0767x    frame=  253 fps=2.6 q=33.0 size=    7102kB time=00:00:07.50 bitrate=7756.7kbits/s speed=0.0775x    frame=  255 fps=2.6 q=33.0 size=   10600kB time=00:00:07.58 bitrate=11450.2kbits/s speed=0.0779x    frame=  260 fps=2.6 q=33.0 size=   10600kB time=00:00:07.79 bitrate=11143.1kbits/s speed=0.0794x    frame=  262 fps=2.6 q=33.0 size=   10600kB time=00:00:07.87 bitrate=11025.7kbits/s speed=0.0794x    frame=  266 fps=2.7 q=33.0 size=   10600kB time=00:00:08.04 bitrate=10796.7kbits/s speed=0.0802x    frame=  267 fps=2.6 q=32.0 size=   10600kB time=00:00:08.08 bitrate=10742.0kbits/s speed=0.08x    frame=  269 fps=2.6 q=32.0 size=   10600kB time=00:00:08.16 bitrate=10631.5kbits/s speed=0.0801x    frame=  270 fps=2.6 q=32.0 size=   10600kB time=00:00:08.20 bitrate=10578.4kbits/s speed=0.0801x    frame=  271 fps=2.6 q=32.0 size=   10600kB time=00:00:08.25 bitrate=10524.6kbits/s speed=0.0801x    frame=  272 fps=2.6 q=32.0 size=   10600kB time=00:00:08.29 bitrate=10471.3kbits/s speed=0.08x    frame=  274 fps=2.6 q=32.0 size=   10600kB time=00:00:08.37 bitrate=10367.5kbits/s speed=0.0802x    frame=  276 fps=2.6 q=32.0 size=   10600kB time=00:00:08.45 bitrate=10265.8kbits/s speed=0.0805x    frame=  277 fps=2.6 q=32.0 size=   10600kB time=00:00:08.50 bitrate=10215.1kbits/s speed=0.0805x    frame=  279 fps=2.6 q=32.0 size=   10600kB time=00:00:08.58 bitrate=10116.3kbits/s speed=0.0806x    frame=  282 fps=2.6 q=32.0 size=   10600kB time=00:00:08.70 bitrate=9971.1kbits/s speed=0.0808x    frame=  284 fps=2.6 q=32.0 size=   10600kB time=00:00:08.79 bitrate=9875.8kbits/s speed=0.0807x    frame=  287 fps=2.6 q=32.0 size=   10600kB time=00:00:08.91 bitrate=9737.4kbits/s speed=0.0813x    frame=  290 fps=2.6 q=32.0 size=   10600kB time=00:00:09.04 bitrate=9602.8kbits/s speed=0.0814x    frame=  293 fps=2.6 q=32.0 size=   10600kB time=00:00:09.16 bitrate=9471.9kbits/s speed=0.0816x    frame=  294 fps=2.6 q=32.0 size=   10600kB time=00:00:09.20 bitrate=9429.7kbits/s speed=0.0815x    frame=  298 fps=2.6 q=32.0 size=   10600kB time=00:00:09.37 bitrate=9261.7kbits/s speed=0.0822x    frame=  301 fps=2.6 q=32.0 size=   10600kB time=00:00:09.50 bitrate=9139.9kbits/s speed=0.082x    frame=  306 fps=2.6 q=32.0 size=   10600kB time=00:00:09.70 bitrate=8944.1kbits/s speed=0.0834x    frame=  307 fps=2.6 q=32.0 size=   10600kB time=00:00:09.75 bitrate=8905.6kbits/s speed=0.0826x    frame=  311 fps=2.6 q=32.0 size=   10600kB time=00:00:09.91 bitrate=8755.6kbits/s speed=0.083x    frame=  314 fps=2.6 q=32.0 size=   10600kB time=00:00:10.04 bitrate=8646.6kbits/s speed=0.0837x    frame=  317 fps=2.6 q=32.0 size=   10600kB time=00:00:10.16 bitrate=8540.3kbits/s speed=0.084x    frame=  319 fps=2.6 q=32.0 size=   10600kB time=00:00:10.25 bitrate=8471.2kbits/s speed=0.0843x    frame=  320 fps=2.6 q=32.0 size=   10600kB time=00:00:10.29 bitrate=8436.6kbits/s speed=0.0838x    frame=  323 fps=2.6 q=31.0 size=   10600kB time=00:00:10.41 bitrate=8335.4kbits/s speed=0.0844x    frame=  326 fps=2.6 q=31.0 size=   10600kB time=00:00:10.54 bitrate=8236.6kbits/s speed=0.0849x    frame=  327 fps=2.6 q=31.0 size=   10600kB time=00:00:10.58 bitrate=8204.7kbits/s speed=0.0848x    frame=  330 fps=2.6 q=31.0 size=   10600kB time=00:00:10.70 bitrate=8108.9kbits/s speed=0.0854x    frame=  332 fps=2.6 q=31.0 size=   10600kB time=00:00:10.79 bitrate=8045.8kbits/s speed=0.0857x    frame=  335 fps=2.6 q=31.0 size=   10600kB time=00:00:10.91 bitrate=7953.7kbits/s speed=0.0861x    frame=  341 fps=2.7 q=31.0 size=   14529kB time=00:00:11.16 bitrate=10657.0kbits/s speed=0.0877x    frame=  342 fps=2.7 q=31.0 size=   14529kB time=00:00:11.20 bitrate=10618.0kbits/s speed=0.0876x    frame=  346 fps=2.7 q=31.0 size=   14529kB time=00:00:11.37 bitrate=10462.2kbits/s speed=0.0884x    frame=  348 fps=2.7 q=31.0 size=   14529kB time=00:00:11.45 bitrate=10386.4kbits/s speed=0.0881x    frame=  352 fps=2.7 q=31.0 size=   14529kB time=00:00:11.62 bitrate=10237.2kbits/s speed=0.0888x    frame=  355 fps=2.7 q=31.0 size=   14529kB time=00:00:11.75 bitrate=10128.3kbits/s speed=0.0886x    frame=  360 fps=2.7 q=31.0 size=   14529kB time=00:00:11.95 bitrate=9952.1kbits/s speed=0.0897x    frame=  362 fps=2.7 q=31.0 size=   14529kB time=00:00:12.04 bitrate=9882.7kbits/s speed=0.0898x    frame=  363 fps=2.7 q=31.0 size=   14529kB time=00:00:12.08 bitrate=9849.2kbits/s speed=0.0896x    frame=  367 fps=2.7 q=30.0 size=   14529kB time=00:00:12.25 bitrate=9714.9kbits/s speed=0.0903x    frame=  370 fps=2.7 q=30.0 size=   14529kB time=00:00:12.37 bitrate=9616.8kbits/s speed=0.0906x    frame=  373 fps=2.7 q=30.0 size=   14529kB time=00:00:12.50 bitrate=9520.6kbits/s speed=0.0912x    frame=  375 fps=2.7 q=30.0 size=   14529kB time=00:00:12.58 bitrate=9457.8kbits/s speed=0.0914x    frame=  378 fps=2.7 q=30.0 size=   14529kB time=00:00:12.70 bitrate=9364.8kbits/s speed=0.0917x    frame=  382 fps=2.7 q=30.0 size=   14529kB time=00:00:12.87 bitrate=9243.4kbits/s speed=0.0923x    frame=  385 fps=2.7 q=30.0 size=   14529kB time=00:00:13.00 bitrate=9154.5kbits/s speed=0.0927x    frame=  389 fps=2.8 q=30.0 size=   14529kB time=00:00:13.16 bitrate=9038.4kbits/s speed=0.0932x    frame=  392 fps=2.8 q=30.0 size=   14529kB time=00:00:13.29 bitrate=8953.4kbits/s speed=0.0935x    frame=  396 fps=2.8 q=29.0 size=   14529kB time=00:00:13.45 bitrate=8843.0kbits/s speed=0.0939x    frame=  400 fps=2.8 q=29.0 size=   14529kB time=00:00:13.62 bitrate=8734.6kbits/s speed=0.0945x    frame=  403 fps=2.8 q=29.0 size=   14529kB time=00:00:13.75 bitrate=8655.2kbits/s speed=0.0948x    frame=  407 fps=2.8 q=29.0 size=   14529kB time=00:00:13.91 bitrate=8551.3kbits/s speed=0.0953x    frame=  411 fps=2.8 q=29.0 size=   14529kB time=00:00:14.08 bitrate=8450.6kbits/s speed=0.0958x    frame=  414 fps=2.8 q=29.0 size=   14529kB time=00:00:14.20 bitrate=8376.2kbits/s speed=0.0962x    frame=  417 fps=2.8 q=28.0 size=   14529kB time=00:00:14.33 bitrate=8303.2kbits/s speed=0.0967x    frame=  419 fps=2.8 q=29.0 size=   14529kB time=00:00:14.41 bitrate=8254.8kbits/s speed=0.0967x    frame=  424 fps=2.8 q=28.0 size=   14529kB time=00:00:14.62 bitrate=8137.4kbits/s speed=0.0976x    frame=  426 fps=2.8 q=28.0 size=   14529kB time=00:00:14.70 bitrate=8091.5kbits/s speed=0.0978x    frame=  428 fps=2.8 q=26.0 size=   14529kB time=00:00:14.79 bitrate=8045.5kbits/s speed=0.0977x    frame=  435 fps=2.9 q=28.0 size=   18323kB time=00:00:15.08 bitrate=9951.3kbits/s speed=0.0988x    frame=  439 fps=2.9 q=28.0 size=   18323kB time=00:00:15.25 bitrate=9842.3kbits/s speed=0.0996x    frame=  441 fps=2.9 q=28.0 size=   18323kB time=00:00:15.33 bitrate=9789.1kbits/s speed=0.0995x    frame=  444 fps=2.9 q=28.0 size=   18323kB time=00:00:15.45 bitrate=9709.9kbits/s speed=0.0995x    frame=  446 fps=2.9 q=28.0 size=   18323kB time=00:00:15.54 bitrate=9657.4kbits/s speed=0.0997x    frame=  448 fps=2.9 q=28.0 size=   18323kB time=00:00:15.62 bitrate=9606.1kbits/s speed=0.0998x    frame=  450 fps=2.9 q=28.0 size=   18323kB time=00:00:15.70 bitrate=9555.4kbits/s speed=0.0995x    frame=  452 fps=2.9 q=28.0 size=   18323kB time=00:00:15.79 bitrate=9504.6kbits/s speed=0.0997x    frame=  456 fps=2.9 q=27.0 size=   18323kB time=00:00:15.95 bitrate=9405.7kbits/s speed= 0.1x    frame=  458 fps=2.8 q=27.0 size=   18323kB time=00:00:16.04 bitrate=9356.5kbits/s speed=0.0998x    frame=  460 fps=2.9 q=27.0 size=   18323kB time=00:00:16.12 bitrate=9308.3kbits/s speed= 0.1x    frame=  463 fps=2.9 q=27.0 size=   18323kB time=00:00:16.25 bitrate=9236.7kbits/s speed= 0.1x    frame=  464 fps=2.8 q=28.0 size=   18323kB time=00:00:16.29 bitrate=9212.9kbits/s speed=0.0998x    frame=  466 fps=2.8 q=28.0 size=   18323kB time=00:00:16.37 bitrate=9166.2kbits/s speed=0.0999x    frame=  470 fps=2.8 q=28.0 size=   18323kB time=00:00:16.54 bitrate=9073.7kbits/s speed= 0.1x    frame=  471 fps=2.8 q=28.0 size=   18323kB time=00:00:16.58 bitrate=9051.2kbits/s speed=0.0994x    frame=  476 fps=2.8 q=28.0 size=   18323kB time=00:00:16.79 bitrate=8938.6kbits/s speed= 0.1x    frame=  477 fps=2.8 q=28.0 size=   18323kB time=00:00:16.83 bitrate=8916.8kbits/s speed=0.0995x    frame=  481 fps=2.8 q=28.0 size=   18323kB time=00:00:17.00 bitrate=8829.2kbits/s speed= 0.1x    frame=  483 fps=2.8 q=28.0 size=   18323kB time=00:00:17.08 bitrate=8786.3kbits/s speed= 0.1x    frame=  484 fps=2.8 q=25.0 size=   18323kB time=00:00:17.12 bitrate=8764.8kbits/s speed= 0.1x    frame=  488 fps=2.8 q=28.0 size=   18323kB time=00:00:17.29 bitrate=8680.1kbits/s speed=0.101x    frame=  491 fps=2.8 q=28.0 size=   21769kB time=00:00:17.41 bitrate=10238.3kbits/s speed=0.101x    frame=  494 fps=2.8 q=28.0 size=   21769kB time=00:00:17.54 bitrate=10165.4kbits/s speed=0.101x    frame=  498 fps=2.8 q=28.0 size=   21769kB time=00:00:17.70 bitrate=10070.1kbits/s speed=0.101x    frame=  500 fps=2.9 q=28.0 size=   21769kB time=00:00:17.79 bitrate=10022.6kbits/s speed=0.101x    frame=  500 fps=2.6 q=-1.0 Lsize=   26844kB time=00:00:20.70 bitrate=10619.0kbits/s speed=0.106x    
video:26839kB audio:0kB subtitle:0kB other streams:0kB global headers:0kB muxing overhead: 0.018094%
bench: utime=732.368s
bench: maxrss=2155732kB
[libx264 @ 0x339c1c0] frame I:6     Avg QP:21.67  size:232958
[libx264 @ 0x339c1c0] frame P:273   Avg QP:28.12  size: 67611
[libx264 @ 0x339c1c0] frame B:221   Avg QP:27.06  size: 34513
[libx264 @ 0x339c1c0] consecutive B-frames: 35.2% 11.6% 18.0% 35.2%
[libx264 @ 0x339c1c0] mb I  I16..4: 20.5% 73.7%  5.8%
[libx264 @ 0x339c1c0] mb P  I16..4: 20.1% 21.7%  0.4%  P16..4: 29.6%  2.7%  2.0%  0.0%  0.0%    skip:23.5%
[libx264 @ 0x339c1c0] mb B  I16..4:  1.3%  2.3%  0.1%  B16..8: 34.3%  3.2%  0.6%  direct: 1.7%  skip:56.5%  L0:42.8% L1:53.7% BI: 3.5%
[libx264 @ 0x339c1c0] final ratefactor: 25.17
[libx264 @ 0x339c1c0] 8x8 transform intra:53.1% inter:85.1%
[libx264 @ 0x339c1c0] direct mvs  spatial:99.1% temporal:0.9%
[libx264 @ 0x339c1c0] coded y,uvDC,uvAC intra: 18.0% 28.1% 2.4% inter: 7.7% 8.2% 0.1%
[libx264 @ 0x339c1c0] i16 v,h,dc,p: 22% 25% 10% 43%
[libx264 @ 0x339c1c0] i8 v,h,dc,ddl,ddr,vr,hd,vl,hu: 16% 13% 25%  6%  8%  8%  9%  6%  8%
[libx264 @ 0x339c1c0] i4 v,h,dc,ddl,ddr,vr,hd,vl,hu: 13% 16%  7%  7% 13% 11% 15%  7% 11%
[libx264 @ 0x339c1c0] i8c dc,h,v,p: 66% 20% 10%  4%
[libx264 @ 0x339c1c0] Weighted P-Frames: Y:1.1% UV:0.7%
[libx264 @ 0x339c1c0] ref P L0: 65.4% 16.8%  8.7%  3.0%  1.9%  1.5%  1.4%  1.1%  0.2%  0.0%
[libx264 @ 0x339c1c0] ref B L0: 88.6%  6.3%  2.6%  1.0%  0.7%  0.4%  0.3%
[libx264 @ 0x339c1c0] ref B L1: 98.2%  1.8%
[libx264 @ 0x339c1c0] kb/s:10553.41
